<svg width="512" height="512" viewBox="0 0 512 512" xmlns="http://www.w3.org/2000/svg">
<path d="M500 256C500 390.757 390.757 500 256 500C121.243 500 12 390.757 12 256C12 121.243 121.243 12 256 12C390.757 12 500 121.243 500 256ZM512 256C512 397.385 397.385 512 256 512C114.615 512 0 397.385 0 256C0 114.615 114.615 0 256 0C397.385 0 512 114.615 512 256ZM256 486C383.025 486 486 383.025 486 256C486 128.975 383.025 26 256 26C128.975 26 26 128.975 26 256C26 383.025 128.975 486 256 486ZM256 494C387.444 494 494 387.444 494 256C494 124.556 387.444 18 256 18C124.556 18 18 124.556 18 256C18 387.444 124.556 494 256 494ZM215.768 355.432L200.792 305.608H125.624L110.648 355.432H83L146.648 157H181.208L236.871 331.326L237.04 331.816L273.416 246.992V157H300.776V239.944H384.296V157H411.656V355.432H384.296V262.408H300.776V355.432H273.416V307.232L252.88 355.432H244.568H220.912H215.768ZM132.248 283.432H194.168L163.352 179.752L132.248 283.432Z" />
</svg>
